<mxfile host="app.diagrams.net" modified="2024-07-13T08:20:28.495Z" agent="Mozilla/5.0 (Macintosh; Intel Mac OS X 10_15_7) AppleWebKit/537.36 (KHTML, like Gecko) Chrome/125.0.0.0 Safari/537.36" etag="0Gcc0qwWfe4O6nVlL7kI" version="24.6.2" type="github">
  <diagram name="Page-1" id="j7pLxt_aFuo62LmIML0I">
    <mxGraphModel dx="1242" dy="711" grid="1" gridSize="10" guides="1" tooltips="1" connect="1" arrows="1" fold="1" page="1" pageScale="1" pageWidth="850" pageHeight="1100" math="0" shadow="0">
      <root>
        <mxCell id="0" />
        <mxCell id="1" parent="0" />
        <mxCell id="3CplHwLoWwES2rncd2Qt-1" value="LLM (Semantic)" style="rounded=0;whiteSpace=wrap;html=1;" vertex="1" parent="1">
          <mxGeometry x="80" y="150" width="230" height="80" as="geometry" />
        </mxCell>
        <mxCell id="3CplHwLoWwES2rncd2Qt-2" value="Source" style="rounded=0;whiteSpace=wrap;html=1;" vertex="1" parent="1">
          <mxGeometry x="310" y="380" width="80" height="30" as="geometry" />
        </mxCell>
        <mxCell id="3CplHwLoWwES2rncd2Qt-3" value="Reference" style="rounded=0;whiteSpace=wrap;html=1;" vertex="1" parent="1">
          <mxGeometry x="411" y="380" width="80" height="30" as="geometry" />
        </mxCell>
        <mxCell id="3CplHwLoWwES2rncd2Qt-4" value="Hypothesis" style="rounded=0;whiteSpace=wrap;html=1;" vertex="1" parent="1">
          <mxGeometry x="511" y="380" width="80" height="30" as="geometry" />
        </mxCell>
        <mxCell id="3CplHwLoWwES2rncd2Qt-5" value="LLM (LLama3-8B)" style="rounded=0;whiteSpace=wrap;html=1;" vertex="1" parent="1">
          <mxGeometry x="340" y="150" width="230" height="80" as="geometry" />
        </mxCell>
        <mxCell id="3CplHwLoWwES2rncd2Qt-6" value="LLM (LLama3-8B)" style="rounded=0;whiteSpace=wrap;html=1;" vertex="1" parent="1">
          <mxGeometry x="591" y="150" width="230" height="80" as="geometry" />
        </mxCell>
      </root>
    </mxGraphModel>
  </diagram>
</mxfile>
